<!--
    Source : https://www.flaticon.com/free-icon/microphone_2097548
    Designed by Freepik (https://www.freepik.com) from Flaticon (https://www.flaticon.com/)
    FREE LICENSE (WITH ATTRIBUTION) https://media.flaticon.com/license/license.pdf
-->
<svg id="Capa_1" enable-background="new 0 0 512 512" height="512" viewBox="0 0 512 512" width="512" xmlns="http://www.w3.org/2000/svg"><path d="m256 318.649c-55.48 0-100.616-45.136-100.616-100.616v-117.417c0-55.48 45.136-100.616 100.616-100.616s100.616 45.136 100.616 100.616v117.416c0 55.481-45.136 100.617-100.616 100.617z" fill="#f3f5fb"/><path d="m256 0v318.649c55.48 0 100.616-45.136 100.616-100.616v-117.417c0-55.48-45.136-100.616-100.616-100.616z" fill="#ced3df"/><path d="m290.384 205.616c-8.284 0-15 6.716-15 15s6.716 15 15 15h64.692c1.011-5.711 1.54-11.587 1.54-17.583v-12.417z" fill="#aeb5c7"/><path d="m356.616 145.616h-66.232c-8.284 0-15 6.716-15 15s6.716 15 15 15h66.232z" fill="#aeb5c7"/><path d="m275.384 100.616c0 8.284 6.716 15 15 15h66.232v-15c0-5.097-.384-10.105-1.119-15h-65.113c-8.284 0-15 6.716-15 15z" fill="#aeb5c7"/><g fill="#ced3df"><path d="m220.597 205.616h-65.213v12.417c0 5.997.53 11.872 1.54 17.583h63.673c8.284 0 15-6.716 15-15s-6.716-15-15-15z"/><path d="m220.597 145.616h-65.213v30h65.213c8.284 0 15-6.716 15-15s-6.716-15-15-15z"/><path d="m220.597 85.616h-64.094c-.735 4.895-1.119 9.903-1.119 15v15h65.213c8.284 0 15-6.716 15-15s-6.716-15-15-15z"/></g><path d="m401.616 165.616c-8.284 0-15 6.716-15 15v37.417c0 72.022-58.594 130.616-130.616 130.616s-130.616-58.594-130.616-130.616v-37.417c0-8.284-6.716-15-15-15s-15 6.716-15 15v37.417c0 83.506 64.06 152.32 145.616 159.91v87.357c0 8.284 6.716 15 15 15s15-6.716 15-15v-87.358c81.556-7.59 145.616-76.404 145.616-159.91v-37.417c0-8.283-6.716-14.999-15-14.999z" fill="#2fc1e0"/><path d="m401.616 165.616c-8.284 0-15 6.716-15 15v37.417c0 72.022-58.594 130.616-130.616 130.616v131.651c8.284 0 15-6.716 15-15v-87.358c81.556-7.59 145.616-76.404 145.616-159.91v-37.417c0-8.283-6.716-14.999-15-14.999z" fill="#186fa2"/><path d="m327.999 462.3h-143.998c-27.335 0-49.7 22.365-49.7 49.7h243.396c.001-27.335-22.364-49.7-49.698-49.7z" fill="#186fa2"/><path d="m256 512h121.698c0-27.335-22.365-49.7-49.7-49.7h-71.998z" fill="#063651"/></svg>